# xmcd CD database file
# Copyright (C) 1995-1998 Ti Kan
#
# Track frame offsets:
#	150
#	1691
#	21480
#	39768
#	54320
#	72654
#	96003
#	125563
#	155321
#	176727
#	197135
#	215455
#	231694
#	254183
#	268855
#	289447
#	308311
#
# Disc length: 4385 seconds
#
# Revision: 2
# Processed by: cddbd v1.4PL0 Copyright (c) Steve Scherf et al.
# Submitted via: CDex 1.30Release
#
DISCID=fb111f11
DTITLE=Lady Pank - Koncertowa
DYEAR=1900
DGENRE=Blues
TTITLE0=Wstêp
TTITLE1=Zamki na piasku
TTITLE2=Kryzysowa narzeczona
TTITLE3=Vademecum Skauta
TTITLE4=Fabryka ma³p
TTITLE5=Sztuka latania
TTITLE6=Marchewkowe pole
TTITLE7=Zawsze tam gdzie ty
TTITLE8=Zostawcie Titanica
TTITLE9=Ma³a wojna
TTITLE10=Du du
TTITLE11=Mniej ni¿ zero
TTITLE12=Znowu pada deszcz
TTITLE13=Tañcz g³upia tañcz
TTITLE14=Ochyda!
TTITLE15=Rozmowa z...
TTITLE16=Do Moniki L.
EXTD=ID3G:   0
EXTT0=
EXTT1=
EXTT2=
EXTT3=
EXTT4=
EXTT5=
EXTT6=
EXTT7=
EXTT8=
EXTT9=
EXTT10=
EXTT11=
EXTT12=
EXTT13=
EXTT14=
EXTT15=
EXTT16=
PLAYORDER=
